# xmcd
#
# Track frame offsets:
#	150
#	22405
#	41223
#	59370
#	79669
#	98218
#	120299
#	141448
#	161564
#	180468
#	200862
#	222482
#
# Disc length: 3291 seconds
#
# Revision: 1
# Processed by: cddbd v1.5.2PL0 Copyright (c) Steve Scherf et al.
# Submitted via: EZCDAudioConverter 8.0.2.1
#
DISCID=b40cd90c
DTITLE=Đàm Vĩnh Hưng - st. Trịnh Công Sơn. Ca Dao Mẹ
DYEAR=2011
DGENRE=World Pop
TTITLE0=Ca Dao Mẹ
TTITLE1=Người già và em bé
TTITLE2=Xin cho tôi
TTITLE3=Ta đã thấy gì trong đêm nay
TTITLE4=Huế, Sài Gòn, Hà Nội
TTITLE5=Cát bụi
TTITLE6=Nhìn những mùa thu đi
TTITLE7=nắng thủy tinh
TTITLE8=Như cánh vạc bay
TTITLE9=Dấu chân địa đàng
TTITLE10=Diễm xưa
TTITLE11=Em còn nhớ hay em đã quên
EXTD=
EXTT0=
EXTT1=
EXTT2=
EXTT3=
EXTT4=
EXTT5=
EXTT6=
EXTT7=
EXTT8=
EXTT9=
EXTT10=
EXTT11=
PLAYORDER=
